HIERARCHY
ROOT hip
{
	OFFSET 0.000000 0.000000 0.000000 
	CHANNELS 6 Xposition Yposition Zposition Zrotation Xrotation Yrotation
	JOINT abdomen
	{
		OFFSET 0.000000 3.402643 0.000000 
		CHANNELS 3 Zrotation Xrotation Yrotation
		JOINT chest
		{
			OFFSET 0.000000 8.438565 -0.680529 
			CHANNELS 3 Zrotation Xrotation Yrotation
			JOINT neck
			{
				OFFSET 0.000000 10.207942 -0.272212 
				CHANNELS 3 Zrotation Xrotation Yrotation
				JOINT head
				{
					OFFSET 0.000000 3.130431 0.000000 
					CHANNELS 3 Zrotation Xrotation Yrotation
					End Site
					{
						OFFSET 0.000000 3.130435 0.000000 
					}
				}
			}
			JOINT lCollar
			{
				OFFSET 3.470700 6.669187 -0.816635 
				CHANNELS 3 Zrotation Xrotation Yrotation
				JOINT lShldr
				{
					OFFSET 3.198488 0.000000 0.000000 
					CHANNELS 3 Zrotation Xrotation Yrotation
					JOINT lForeArm
					{
						OFFSET 10.139888 0.000000 0.000000 
						CHANNELS 3 Zrotation Xrotation Yrotation
						JOINT lHand
						{
							OFFSET 8.370511 0.000000 0.000000 
							CHANNELS 3 Zrotation Xrotation Yrotation
							End Site
							{
								OFFSET 4.083176 0.000000 0.000000 
							}
						}
					}
				}
			}
			JOINT rCollar
			{
				OFFSET -3.470700 6.669187 -0.816635 
				CHANNELS 3 Zrotation Xrotation Yrotation
				JOINT rShldr
				{
					OFFSET -3.198488 0.000000 0.000000 
					CHANNELS 3 Zrotation Xrotation Yrotation
					JOINT rForeArm
					{
						OFFSET -10.139888 0.000000 0.000000 
						CHANNELS 3 Zrotation Xrotation Yrotation
						JOINT rHand
						{
							OFFSET -8.370511 0.000000 0.000000 
							CHANNELS 3 Zrotation Xrotation Yrotation
							End Site
							{
								OFFSET -4.083176 0.000000 0.000000 
							}
						}
					}
				}
			}
		}
	}
	JOINT lThigh
	{
		OFFSET 5.308129 -1.633274 1.361059 
		CHANNELS 3 Zrotation Xrotation Yrotation
		JOINT lShin
		{
			OFFSET -2.041588 -20.007561 0.000000 
			CHANNELS 3 Zrotation Xrotation Yrotation
			JOINT lFoot
			{
				OFFSET 0.000000 -19.190928 -1.224953 
				CHANNELS 3 Zrotation Xrotation Yrotation
				End Site
				{
					OFFSET 0.000000 -2.449906 4.627600 
				}
			}
		}
	}
	JOINT rThigh
	{
		OFFSET -5.308129 -1.633274 1.361059 
		CHANNELS 3 Zrotation Xrotation Yrotation
		JOINT rShin
		{
			OFFSET 2.041588 -20.007561 0.000000 
			CHANNELS 3 Zrotation Xrotation Yrotation
			JOINT rFoot
			{
				OFFSET 0.000000 -19.190928 -1.224953 
				CHANNELS 3 Zrotation Xrotation Yrotation
				End Site
				{
					OFFSET 0.000000 -2.449906 4.627600 
				}
			}
		}
	}
}
MOTION
Frames: 15
Frame Time: 0.033333
0.007983 48.052624 0.102515 -0.000004 0.000020 0.000016 -0.447478 0.066239 -0.229839 -1.857961 2.433804 -0.587140 -0.239714 8.161017 0.036467 3.008792 -0.661501 -0.592401 -8.173267 -0.771258 11.498978 -62.136826 18.215527 4.308026 -5.840350 38.976028 -7.927249 7.503061 -30.874569 -0.320624 6.677823 -1.091508 -1.166598 68.395935 18.841879 1.903885 -0.410279 4.566773 51.098976 -10.685776 0.941671 -0.553995 2.774895 -7.521993 1.012068 -2.346668 13.993921 -0.925897 -0.658715 -7.050977 0.413647 -4.370708 -7.483930 -0.498468 2.149767 13.901205 -0.315244 1.427620 -7.066549 -1.400482 
0.004218 48.035324 0.193004 -0.000004 0.000020 0.000017 -0.202000 0.031060 -0.103406 -2.497058 5.836508 -0.812018 -0.393417 13.563984 0.097677 4.982197 -10.020758 -0.152196 -10.733746 -1.545606 17.509373 -63.172596 19.301010 -3.379621 -12.447144 57.659508 1.138199 10.463535 -52.147099 6.595200 7.847040 -1.595463 -0.793818 65.955887 16.900768 14.679804 -4.261195 0.488810 69.235321 -14.271730 -1.093947 -4.184361 2.755922 -7.534521 0.952237 -2.418612 14.274272 -0.774088 -0.541700 -7.246421 0.327855 -4.379729 -7.501237 -0.501373 2.174649 14.172617 -0.274408 1.416207 -7.231168 -1.420451 
0.000000 48.015713 0.294145 -0.000000 -0.000010 -0.000000 -0.000000 -0.000002 -0.000000 -2.993468 8.699202 -0.924344 -0.481585 17.616615 0.155553 6.289351 -16.934681 0.589733 -12.268966 -1.524644 20.350754 -59.770355 20.800735 -17.659714 -9.918392 61.629559 0.745035 23.264433 -66.719139 23.182541 8.976248 -1.979982 -0.530818 56.645248 10.604001 31.566040 -4.441686 -3.740336 76.450172 -17.852833 -7.287882 -8.403268 2.737515 -7.547661 0.882779 -2.512118 14.581383 -0.600226 -0.446513 -7.471195 0.239484 -4.381215 -7.522904 -0.504117 2.207374 14.482352 -0.234066 1.359372 -7.493475 -1.423908 
-0.001905 48.006836 0.339811 0.000009 -0.000071 -0.000037 0.086429 -0.013459 0.044247 -3.206544 9.929108 -0.953754 -0.447710 19.108011 0.162118 6.099253 -18.121677 0.706475 -12.082234 0.304595 18.236853 -49.606606 20.416525 -39.319351 6.487106 41.241722 -13.957086 43.307091 -68.252632 43.881023 9.855476 -2.138456 -0.410995 42.322697 1.767199 52.180443 -2.965194 -5.940578 67.091637 -20.757486 -18.498432 -12.464643 2.734393 -7.540275 0.862212 -2.551228 14.705629 -0.538140 -0.448744 -7.549476 0.210258 -4.388883 -7.528672 -0.515242 2.240383 14.634389 -0.206976 1.323018 -7.652732 -1.383994 
-0.001814 48.007252 0.337649 0.000017 -0.000163 -0.000070 0.082353 -0.012793 0.042177 -3.196465 9.871248 -0.949316 -0.331413 18.683605 0.127774 4.858083 -15.156867 0.313798 -10.378695 3.016576 12.922696 -36.652916 15.165123 -62.340263 7.072998 4.109024 -25.243156 52.256042 -61.903667 50.834122 10.463772 -2.128694 -0.397028 28.720480 -2.387908 74.064697 -2.073882 -7.918935 47.338818 -22.287169 -31.683563 -15.338140 2.734394 -7.540275 0.862212 -2.560879 14.693756 -0.546363 -0.487764 -7.510581 0.214566 -4.381493 -7.532972 -0.515081 2.259842 14.621930 -0.219695 1.275001 -7.722245 -1.351559 
-0.000816 48.011898 0.313736 0.000017 -0.000132 -0.000068 0.037101 -0.005731 0.019015 -3.084630 9.227414 -0.930766 -0.201201 17.452396 0.086972 3.444735 -10.814367 -0.033809 -7.988109 5.242991 7.049196 -26.798445 6.800144 -79.921745 -12.577789 -27.336180 -44.112194 54.289719 -54.017433 50.288315 10.829181 -2.044369 -0.434618 17.116720 0.554495 91.622887 -2.857703 -10.203247 26.397799 -21.939739 -42.969398 -16.241676 2.746502 -7.545303 0.873815 -2.563756 14.633152 -0.564132 -0.532759 -7.432616 0.228959 -4.381213 -7.522904 -0.504117 2.268775 14.542229 -0.241905 1.254735 -7.731198 -1.350983 
0.000000 48.015713 0.294145 -0.000000 -0.000010 -0.000000 -0.000000 -0.000002 -0.000000 -2.993467 8.699201 -0.914544 -0.122248 16.523355 0.064068 2.593100 -7.911896 -0.150220 -6.354248 6.281400 3.439529 -22.356873 1.055946 -88.570320 -36.551662 -36.960449 -64.287720 54.547199 -49.043011 49.040794 10.980269 -1.976001 -0.470000 9.923559 4.596404 100.150551 -4.209203 -11.504617 13.743548 -20.750397 -48.979362 -15.808119 2.746513 -7.544382 0.883471 -2.555387 14.564171 -0.593529 -0.564062 -7.374146 0.227805 -4.381215 -7.522904 -0.504117 2.268222 14.483029 -0.242898 1.217138 -7.683984 -1.415734 
0.000000 48.015713 0.294145 -0.000000 -0.000010 -0.000000 -0.000000 -0.000002 -0.000000 -2.993467 8.699201 -0.914544 -0.122248 16.523355 0.064068 2.593100 -7.911896 -0.150220 -6.354248 6.281400 3.439529 -22.356873 1.055946 -88.570320 -36.551662 -36.960449 -64.287720 54.547199 -49.043011 49.040794 10.980269 -1.976001 -0.470000 9.923559 4.596404 100.150551 -4.209203 -11.504617 13.743548 -20.750397 -48.979362 -15.808119 2.746513 -7.544382 0.883471 -2.555387 14.564171 -0.593529 -0.564062 -7.374146 0.227805 -4.381215 -7.522904 -0.504117 2.268222 14.483029 -0.242898 1.192491 -7.615039 -1.498298 
0.000000 48.015713 0.294145 -0.000000 -0.000010 -0.000000 -0.000000 -0.000002 -0.000000 -2.993467 8.699201 -0.914544 -0.122248 16.523355 0.064068 2.593100 -7.911896 -0.150220 -6.354248 6.281400 3.439529 -22.356873 1.055946 -88.570320 -36.551662 -36.960449 -64.287720 54.547199 -49.043011 49.040794 10.980269 -1.976001 -0.470000 9.923559 4.596404 100.150551 -4.209203 -11.504617 13.743548 -20.750397 -48.979362 -15.808119 2.746513 -7.544382 0.883471 -2.555387 14.564171 -0.593529 -0.564062 -7.374146 0.227805 -4.381215 -7.522904 -0.504117 2.268222 14.483029 -0.242898 1.192491 -7.615039 -1.498298 
0.000000 48.015713 0.294145 -0.000000 -0.000010 -0.000000 -0.000000 -0.000002 -0.000000 -2.993467 8.699201 -0.914544 -0.122248 16.523355 0.064068 2.593100 -7.911896 -0.150220 -6.354248 6.281400 3.439529 -22.356873 1.055946 -88.570320 -36.551662 -36.960449 -64.287720 54.547199 -49.043011 49.040794 10.980269 -1.976001 -0.470000 9.923559 4.596404 100.150551 -4.209203 -11.504617 13.743548 -20.750397 -48.979362 -15.808119 2.746513 -7.544382 0.883471 -2.555387 14.564171 -0.593529 -0.564062 -7.374146 0.227805 -4.381215 -7.522904 -0.504117 2.268222 14.483029 -0.242898 1.192491 -7.615039 -1.498298 
0.000000 48.015713 0.294145 -0.000000 -0.000010 -0.000000 -0.000000 -0.000002 -0.000000 -2.993467 8.699201 -0.914544 -0.122248 16.523355 0.064068 2.593100 -7.911896 -0.150220 -6.354248 6.281400 3.439529 -22.356873 1.055946 -88.570320 -36.551662 -36.960449 -64.287720 54.547199 -49.043011 49.040794 10.980269 -1.976001 -0.470000 9.923559 4.596404 100.150551 -4.209203 -11.504617 13.743548 -20.750397 -48.979362 -15.808119 2.746513 -7.544382 0.883471 -2.555387 14.564171 -0.593529 -0.564062 -7.374146 0.227805 -4.381215 -7.522904 -0.504117 2.268222 14.483029 -0.242898 1.192491 -7.615039 -1.498298 
0.000000 48.015713 0.294145 -0.000000 -0.000010 -0.000000 -0.000000 -0.000002 -0.000000 -2.993467 8.699201 -0.914544 -0.122248 16.523355 0.064068 2.593100 -7.911896 -0.150220 -6.354248 6.281400 3.439529 -22.356873 1.055946 -88.570320 -36.551662 -36.960449 -64.287720 54.547199 -49.043011 49.040794 10.980269 -1.976001 -0.470000 9.923559 4.596404 100.150551 -4.209203 -11.504617 13.743548 -20.750397 -48.979362 -15.808119 2.746513 -7.544382 0.883471 -2.555387 14.564171 -0.593529 -0.564062 -7.374146 0.227805 -4.381215 -7.522904 -0.504117 2.268222 14.483029 -0.242898 1.192491 -7.615039 -1.498298 
0.000000 48.015713 0.294145 -0.000000 -0.000010 -0.000000 -0.000000 -0.000002 -0.000000 -2.993467 8.699201 -0.914544 -0.122248 16.523355 0.064068 2.593100 -7.911896 -0.150220 -6.354248 6.281400 3.439529 -22.356873 1.055946 -88.570320 -36.551662 -36.960449 -64.287720 54.547199 -49.043011 49.040794 10.980269 -1.976001 -0.470000 9.923559 4.596404 100.150551 -4.209203 -11.504617 13.743548 -20.750397 -48.979362 -15.808119 2.746513 -7.544382 0.883471 -2.555387 14.564171 -0.593529 -0.564062 -7.374146 0.227805 -4.381215 -7.522904 -0.504117 2.268222 14.483029 -0.242898 1.192491 -7.615039 -1.498298 
0.000000 48.015713 0.294145 -0.000000 -0.000010 -0.000000 -0.000000 -0.000002 -0.000000 -2.993467 8.699201 -0.914544 -0.122248 16.523355 0.064068 2.593100 -7.911896 -0.150220 -6.354248 6.281400 3.439529 -22.356873 1.055946 -88.570320 -36.551662 -36.960449 -64.287720 54.547199 -49.043011 49.040794 10.980269 -1.976001 -0.470000 9.923559 4.596404 100.150551 -4.209203 -11.504617 13.743548 -20.750397 -48.979362 -15.808119 2.746513 -7.544382 0.883471 -2.555387 14.564171 -0.593529 -0.564062 -7.374146 0.227805 -4.381215 -7.522904 -0.504117 2.268222 14.483029 -0.242898 1.192491 -7.615039 -1.498298 
0.000000 48.013634 0.291666 -0.000000 -0.000010 -0.000000 -0.000000 -0.000002 -0.000000 -2.993451 8.699236 -0.914549 -0.122236 16.523392 0.064042 2.593059 -7.911914 -0.150200 -6.354242 6.281394 3.439530 -22.356909 1.055972 -88.570267 -36.551662 -36.960449 -64.287720 54.547199 -49.043011 49.040802 10.980266 -1.975959 -0.470013 9.923591 4.596410 100.150566 -4.209247 -11.504600 13.743539 -20.750397 -48.979370 -15.808117 2.746513 -7.544382 0.883471 -2.555387 14.564169 -0.593529 -0.564061 -7.374149 0.227807 -4.381215 -7.522904 -0.504117 2.268221 14.483031 -0.242898 1.192491 -7.615041 -1.498297 
